<svg xmlns="http://www.w3.org/2000/svg" viewBox="0 0 529.52 516.07">
  <defs>
    <style>
      .cls-1 {
        fill: #2b2b2b;
      }

      .cls-1, .cls-2 {
        fill-rule: evenodd;
      }

      .cls-2 {
        fill: #ef7900;
      }
    </style>
  </defs>
  <title>1Ресурс 2biolink</title>
  <g id="Слой_2" data-name="Слой 2">
    <g id="Слой_1-2" data-name="Слой 1">
      <g id="Page-1">
        <g id="biolink-logo-text">
          <g id="Logo_icon" data-name="Logo icon">
            <path id="gray" class="cls-1" d="M504.39,10.25a58.08,58.08,0,0,1,24.84,53.61A59.3,59.3,0,0,1,497.68,109,419.66,419.66,0,0,0,429,157.93,342.56,342.56,0,0,0,380.77,208a292.59,292.59,0,0,0-36.45,62.9,444.37,444.37,0,0,0-29.42,97.88c-.51,3.09-.9,6.45-1.54,9.22a58.07,58.07,0,1,1-87.94-60.19c6.45-4.26,13.68-7.94,20.39-12.2a479.26,479.26,0,0,0,41.8-30,381.68,381.68,0,0,0,48.84-46.19,277.66,277.66,0,0,0,40.2-60.77A435.48,435.48,0,0,0,412.13,61.41c2.39-12.06,3.68-23.94,10.45-34.71a58.07,58.07,0,0,1,81.81-16.45Z"/>
            <path id="orange" class="cls-2" d="M348.06,316.06a391.14,391.14,0,0,1,19.36-49,149.42,149.42,0,0,1-105.68,249,152.68,152.68,0,0,1-138.13-83.23,148,148,0,0,1-9.09-110,104.85,104.85,0,0,0,2.84-12.39,94.08,94.08,0,0,0-11.94-64.51,130,130,0,0,0-35.74-36.84,141.33,141.33,0,0,0-34.84-18.32c-3.61-1.3-7.23-2.13-10.9-3.23A33,33,0,1,1,57,133.09,40.66,40.66,0,0,1,65.55,149a130.07,130.07,0,0,0,13.68,27.61c17,26.52,42.9,49.81,74.45,55.61a92.55,92.55,0,0,0,47.42-3.48,163.53,163.53,0,0,1,50.71-10.64,148.5,148.5,0,0,1,59.61,10.25Q300,240,287.61,250.7a192.63,192.63,0,0,1-22.9,17.94,101.45,101.45,0,0,1-27.42,12,99.92,99.92,0,0,0-24.84,9.61,88.13,88.13,0,1,0,132.26,73.1,183.16,183.16,0,0,1,0-31.42A91.43,91.43,0,0,1,348.06,316.06Z"/>
          </g>
        </g>
      </g>
    </g>
  </g>
</svg>
