<svg xmlns="http://www.w3.org/2000/svg" viewBox="0 0 1526.01 516.07">
  <defs>
    <style>
      .cls-1 {
        fill: #fff;
      }

      .cls-1, .cls-2 {
        fill-rule: evenodd;
      }

      .cls-2 {
        fill: #ef7900;
      }
    </style>
  </defs>
  <title>1Ресурс 1biolinklogo</title>
  <g id="Слой_2" data-name="Слой 2">
    <g id="Слой_1-2" data-name="Слой 1">
      <g id="Page-1">
        <g id="biolink-logo-text">
          <g id="Logo_icon" data-name="Logo icon">
            <path id="gray" class="cls-1" d="M504.39,10.25a58.08,58.08,0,0,1,24.84,53.61A59.3,59.3,0,0,1,497.68,109,419.66,419.66,0,0,0,429,157.93,342.56,342.56,0,0,0,380.77,208a292.59,292.59,0,0,0-36.45,62.9,444.37,444.37,0,0,0-29.42,97.88c-.51,3.09-.9,6.45-1.54,9.22a58.07,58.07,0,1,1-87.94-60.19c6.45-4.26,13.68-7.94,20.39-12.2a479.26,479.26,0,0,0,41.8-30,381.68,381.68,0,0,0,48.84-46.19,277.66,277.66,0,0,0,40.2-60.77A435.48,435.48,0,0,0,412.13,61.41c2.39-12.06,3.68-23.94,10.45-34.71a58.07,58.07,0,0,1,81.81-16.45Z"/>
            <path id="orange" class="cls-2" d="M348.06,316.06a391.14,391.14,0,0,1,19.36-49,149.42,149.42,0,0,1-105.68,249,152.68,152.68,0,0,1-138.13-83.23,148,148,0,0,1-9.09-110,104.85,104.85,0,0,0,2.84-12.39,94.08,94.08,0,0,0-11.94-64.51,130,130,0,0,0-35.74-36.84,141.33,141.33,0,0,0-34.84-18.32c-3.61-1.3-7.23-2.13-10.9-3.23A33,33,0,1,1,57,133.09,40.66,40.66,0,0,1,65.55,149a130.07,130.07,0,0,0,13.68,27.61c17,26.52,42.9,49.81,74.45,55.61a92.55,92.55,0,0,0,47.42-3.48,163.53,163.53,0,0,1,50.71-10.64,148.5,148.5,0,0,1,59.61,10.25Q300,240,287.61,250.7a192.63,192.63,0,0,1-22.9,17.94,101.45,101.45,0,0,1-27.42,12,99.92,99.92,0,0,0-24.84,9.61,88.13,88.13,0,1,0,132.26,73.1,183.16,183.16,0,0,1,0-31.42A91.43,91.43,0,0,1,348.06,316.06Z"/>
          </g>
          <path id="Tech" class="cls-2" d="M1171.38,298.87h45.94V284.58H1110v14.29h45.85V421.41h15.45V298.87ZM1422.15,404l-9.59-8.88A57.86,57.86,0,0,1,1399,405.87a34.17,34.17,0,0,1-17.31,4.44,35.51,35.51,0,0,1-26.63-11.4,40.15,40.15,0,0,1-7.81-12.56,41.85,41.85,0,0,1-2.84-15.41,42.36,42.36,0,0,1,2.75-15.31,39.67,39.67,0,0,1,7.64-12.47,34.81,34.81,0,0,1,11.53-8.39,34.16,34.16,0,0,1,14.25-3,32.34,32.34,0,0,1,17.49,4.44,71.28,71.28,0,0,1,13.31,10.74l10-10.56a79.55,79.55,0,0,0-7.63-7.06,48.2,48.2,0,0,0-19.75-9.58,57.35,57.35,0,0,0-13.32-1.38,50.22,50.22,0,0,0-20.64,4.22A51.29,51.29,0,0,0,1343.59,334a52.64,52.64,0,0,0-10.83,16.91,53.88,53.88,0,0,0-3.9,20.41,53.21,53.21,0,0,0,3.9,20.33A51.34,51.34,0,0,0,1360,419.72a50.22,50.22,0,0,0,20.64,4.22,47.64,47.64,0,0,0,23.92-5.55,68.43,68.43,0,0,0,17.31-14.2Zm30.58-40.48a35.31,35.31,0,0,1,2.26-12.91,29.16,29.16,0,0,1,6.35-10.08,28.12,28.12,0,0,1,9.63-6.39,31.74,31.74,0,0,1,12-2.26,26.07,26.07,0,0,1,20.72,8.21,32.47,32.47,0,0,1,7.24,22.19v59h15V358.61a49.07,49.07,0,0,0-2.62-16.43,36.53,36.53,0,0,0-7.64-12.78,33.91,33.91,0,0,0-12.11-8.3,42.83,42.83,0,0,0-16.34-2.93,36.3,36.3,0,0,0-21.3,5.77,47.6,47.6,0,0,0-13.32,14v-59.2h-15V421.41h15v-57.7Zm-143-12.69a49.63,49.63,0,0,0-9.19-17,43.57,43.57,0,0,0-14.86-11.45,48.79,48.79,0,0,0-39.37,0A47.08,47.08,0,0,0,1231,333.62a51.56,51.56,0,0,0-10.07,16.82,58.16,58.16,0,0,0-3.6,20.64,55.66,55.66,0,0,0,4.08,21.48,51.22,51.22,0,0,0,11,16.69A49,49,0,0,0,1248.43,420,50.53,50.53,0,0,0,1268,423.8a51.24,51.24,0,0,0,24.24-5.19,61.74,61.74,0,0,0,17.39-13.76l-9.36-8.39a53.14,53.14,0,0,1-13.76,10.35,38.68,38.68,0,0,1-18.06,3.9,36.18,36.18,0,0,1-12.7-2.26,33.78,33.78,0,0,1-11-6.66,35.13,35.13,0,0,1-8-10.74,41.65,41.65,0,0,1-3.91-14.56h79.89a17.8,17.8,0,0,0,0-2.53v-2a68.41,68.41,0,0,0-3-21.08Zm-77,14.47a46.81,46.81,0,0,1,3.5-13.67,38.84,38.84,0,0,1,7-10.79,32.24,32.24,0,0,1,9.9-7.23,28.45,28.45,0,0,1,12.25-2.62,29.54,29.54,0,0,1,13.31,2.84,30.18,30.18,0,0,1,9.72,7.5,35.58,35.58,0,0,1,6.22,11,52.77,52.77,0,0,1,2.79,13.32Z"/>
          <path id="Biolink" class="cls-1" d="M658.05,302.37v-22.5H632.44v22.5Zm214,0v-22.5H846.46v22.5Zm-48.52,119V278.72H799.72V421.41Zm95.61-58.1a26.09,26.09,0,0,1,6.39-18.77,22.17,22.17,0,0,1,16.68-6.75,20.37,20.37,0,0,1,16.2,6.52A27.36,27.36,0,0,1,964.12,363v58.37H988V355.72a42,42,0,0,0-9.63-28.94A34.41,34.41,0,0,0,951.2,316a37.1,37.1,0,0,0-10.83,1.47,35.91,35.91,0,0,0-8.88,4.08,35,35,0,0,0-6.74,6,56.16,56.16,0,0,0-5.59,7V318.22H895.32V421.41h23.84v-58.1Zm146.9-3.06,41-42h-28.72l-42.69,45.71V278.72h-23.84V421.41h23.84V391.89l14.47-15,31.06,44.38h27.39l-42.43-61.16ZM871.27,421.41V318.22H847.43V421.41Zm-91.88-72.52A52.67,52.67,0,0,0,768,332a53.23,53.23,0,0,0-17.4-11.54,56.48,56.48,0,0,0-22.19-4.22,55.43,55.43,0,0,0-22.19,4.44,54.51,54.51,0,0,0-17,11.32,53.86,53.86,0,0,0-11.54,17.17,53.25,53.25,0,0,0,28.71,70.35,58.78,58.78,0,0,0,43.9,0,53.55,53.55,0,0,0,29-28.72,52.13,52.13,0,0,0,4.22-20.9A53,53,0,0,0,779.39,348.89ZM757.51,383a29.78,29.78,0,0,1-28.89,20.24,29.68,29.68,0,0,1-12.56-2.62,31.53,31.53,0,0,1-9.9-7.14,32,32,0,0,1-6.48-10.66,36.3,36.3,0,0,1-2.35-13A37.32,37.32,0,0,1,699.46,357a30.51,30.51,0,0,1,51.35-10.39,33.49,33.49,0,0,1,6.48,10.65,35.48,35.48,0,0,1,2.35,12.92A37.32,37.32,0,0,1,757.51,383ZM657.25,421.36V318.22H633.42V421.41Zm-42.07-50a26.81,26.81,0,0,0-5.55-9.27,35.25,35.25,0,0,0-8.57-6.75,72,72,0,0,0-11-5,51.08,51.08,0,0,0,7.28-4.7,31.14,31.14,0,0,0,6.21-6.35,31.6,31.6,0,0,0,4.44-8.52,34.8,34.8,0,0,0,1.64-11.19,30.7,30.7,0,0,0-12.07-25.65,52,52,0,0,0-32.75-9.41H503.42V421.41h63.25A81.88,81.88,0,0,0,587.35,419a48.54,48.54,0,0,0,16-7.19A32.81,32.81,0,0,0,613.53,400a34.84,34.84,0,0,0,3.6-16.2,36,36,0,0,0-1.91-12.43Zm-87.93-65.46h34.44a29.25,29.25,0,0,1,17.76,4.44,15.39,15.39,0,0,1,6.12,13.05,15.83,15.83,0,0,1-6.7,14.42,33.47,33.47,0,0,1-18.68,4.44H527.25Zm59.08,89.43A33.92,33.92,0,0,1,567,400.1H527.08V362.56h38a37,37,0,0,1,21.31,4.92,15.85,15.85,0,0,1,6.92,13.67A16.09,16.09,0,0,1,586.33,395.31Z"/>
        </g>
      </g>
    </g>
  </g>
</svg>
